<?xml version="1.0" encoding="utf-8"?>
<!-- Generator: Adobe Illustrator 17.0.0, SVG Export Plug-In . SVG Version: 6.00 Build 0)  -->
<!DOCTYPE svg PUBLIC "-//W3C//DTD SVG 1.1//EN" "http://www.w3.org/Graphics/SVG/1.1/DTD/svg11.dtd">
<svg version="1.1" id="Layer_1" xmlns="http://www.w3.org/2000/svg" xmlns:xlink="http://www.w3.org/1999/xlink" x="0px" y="0px"
	 width="792px" height="792px" viewBox="0 0 792 792" enable-background="new 0 0 792 792" xml:space="preserve">
<rect x="270.708" y="72.891" fill="#FFFFFF" width="18.285" height="18.123"/>
<rect x="288.993" y="91.014" fill="#FFFFFF" width="18.285" height="18.123"/>
<rect x="270.708" y="109.136" fill="#FFFFFF" width="18.285" height="18.123"/>
<rect x="288.993" y="127.259" fill="#FFFFFF" width="18.285" height="18.123"/>
<rect x="270.708" y="145.382" fill="#FFFFFF" width="18.285" height="18.123"/>
<rect x="288.993" y="163.505" fill="#FFFFFF" width="18.285" height="18.123"/>
<rect x="270.708" y="181.627" fill="#FFFFFF" width="18.285" height="18.123"/>
<rect x="288.993" y="199.75" fill="#FFFFFF" width="18.285" height="18.123"/>
<rect x="270.708" y="217.873" fill="#FFFFFF" width="18.285" height="18.123"/>
<g>
	<path fill="#09AB53" d="M540.817,716.873H264.672c-52.851,0-95.695-43.72-95.695-97.651V172.777
		c0-53.931,42.844-97.651,95.695-97.651H504.53l131.982,135.288v408.809C636.512,673.154,593.668,716.873,540.817,716.873z"/>
	<path opacity="0.5" fill="#FFFFFF" d="M636.512,210.449H531.688c-14.856,0-26.908-12.272-26.938-27.432l-0.22-107.891"/>
	<g>
		<polygon fill="#FFFFFF" points="260.613,560.957 329.596,456.546 390.063,521.433 464.156,383.764 553.578,560.957 		"/>
		<ellipse fill="#FFFFFF" cx="300.64" cy="379.419" rx="21.291" ry="21.726"/>
	</g>
</g>
</svg>
