<?xml version="1.0" encoding="utf-8"?>
<!-- Generator: Adobe Illustrator 17.0.0, SVG Export Plug-In . SVG Version: 6.00 Build 0)  -->
<!DOCTYPE svg PUBLIC "-//W3C//DTD SVG 1.1//EN" "http://www.w3.org/Graphics/SVG/1.1/DTD/svg11.dtd">
<svg version="1.1" id="Layer_1" xmlns="http://www.w3.org/2000/svg" xmlns:xlink="http://www.w3.org/1999/xlink" x="0px" y="0px"
	 width="792px" height="792px" viewBox="0 0 792 792" enable-background="new 0 0 792 792" xml:space="preserve">
<g>
	<path fill="#EF402C" d="M532.782,733.703H256.233c-52.929,0-95.836-46.113-95.836-102.997V159.817
		c0-56.884,42.907-102.997,95.836-102.997h240.209l132.176,142.695v431.192C628.617,687.59,585.71,733.703,532.782,733.703z"/>
	<path opacity="0.5" fill="#FFFFFF" d="M628.617,199.552H523.64c-14.878,0-26.947-12.944-26.978-28.934l-0.22-113.798"/>
	<path fill="#FFFFFF" d="M398.092,268.086c-3.819-14.687-13.063-22.031-20.901-20.951c-9.446,1.296-19.495,7.344-23.515,16.848
		c-11.255,27.215,12.259,107.348,15.877,120.74c-22.91,74.301-101.291,221.176-139.676,231.112
		c-0.804-9.719,4.02-37.798,54.665-72.789c2.613-3.024,5.627-6.696,7.035-9.072c-42.807,22.464-98.277,58.535-64.915,85.534
		c1.809,1.512,4.623,2.808,7.839,4.104c25.523,10.151,61.296-23.112,97.271-98.493c39.591-14.039,71.547-24.623,116.765-31.967
		c49.439,36.071,82.6,43.414,105.109,34.127c6.23-2.592,16.078-11.016,18.891-22.032c-18.289,24.191-61.096,7.345-95.261-15.767
		c31.552-3.672,64.11-5.831,78.178-1.08c17.887,6.048,17.284,15.551,17.083,16.848c1.407-5.183,3.417-13.607-0.402-20.303
		c-15.073-26.351-84.208-11.015-109.329-8.207c-39.592-25.703-66.925-71.493-77.978-104.54
		C395.077,329.644,406.131,298.758,398.092,268.086 M381.009,357.291c-6.632-25.271-15.877-81.428-1.005-99.572
		C409.146,275.646,391.058,318.196,381.009,357.291 M435.473,482.567c-38.185,7.56-64.11,18.143-101.29,33.91
		c11.054-23.111,31.955-82.076,42.003-120.955C390.254,425.761,407.336,455.351,435.473,482.567"/>
</g>
</svg>
