<?xml version="1.0" encoding="utf-8"?>
<!-- Generator: Adobe Illustrator 17.0.0, SVG Export Plug-In . SVG Version: 6.00 Build 0)  -->
<!DOCTYPE svg PUBLIC "-//W3C//DTD SVG 1.1//EN" "http://www.w3.org/Graphics/SVG/1.1/DTD/svg11.dtd">
<svg version="1.1" id="Layer_1" xmlns="http://www.w3.org/2000/svg" xmlns:xlink="http://www.w3.org/1999/xlink" x="0px" y="0px"
	 width="792px" height="792px" viewBox="0 0 792 792" enable-background="new 0 0 792 792" xml:space="preserve">
<g>
	<path fill="#5A6D8A" d="M536.769,722.143h-284.32c-54.416,0-98.529-44.231-98.529-98.793V171.684
		c0-54.562,44.113-98.793,98.529-98.793h246.959l135.89,136.87v413.59C635.298,677.912,591.185,722.143,536.769,722.143z"/>
	<path opacity="0.5" fill="#FFFFFF" d="M635.298,209.796H527.37c-15.296,0-27.704-12.416-27.736-27.753l-0.226-109.153"/>
</g>
<rect x="270.708" y="72.891" fill="#FFFFFF" width="18.285" height="18.123"/>
<rect x="288.993" y="91.014" fill="#FFFFFF" width="18.285" height="18.123"/>
<rect x="270.708" y="109.136" fill="#FFFFFF" width="18.285" height="18.123"/>
<rect x="288.993" y="127.259" fill="#FFFFFF" width="18.285" height="18.123"/>
<rect x="270.708" y="145.382" fill="#FFFFFF" width="18.285" height="18.123"/>
<rect x="288.993" y="163.505" fill="#FFFFFF" width="18.285" height="18.123"/>
<rect x="270.708" y="181.627" fill="#FFFFFF" width="18.285" height="18.123"/>
<rect x="288.993" y="199.75" fill="#FFFFFF" width="18.285" height="18.123"/>
<rect x="270.708" y="217.873" fill="#FFFFFF" width="18.285" height="18.123"/>
<rect x="288.993" y="235.996" fill="#FFFFFF" width="18.285" height="18.123"/>
<rect x="270.708" y="254.118" fill="#FFFFFF" width="36.57" height="50.544"/>
<rect x="279.851" y="279.39" fill="#A1BEDF" width="18.285" height="18.123"/>
</svg>
